<svg width="14" height="16" viewBox="0 0 14 16" fill="none" xmlns="http://www.w3.org/2000/svg">
<path d="M7 0.99904C7.53043 0.99904 8.03914 1.20975 8.41421 1.58483C8.78929 1.9599 9 2.46861 9 2.99904C9 3.52947 8.78929 4.03818 8.41421 4.41325C8.03914 4.78833 7.53043 4.99904 7 4.99904C6.46957 4.99904 5.96086 4.78833 5.58579 4.41325C5.21071 4.03818 5 3.52947 5 2.99904C5 2.46861 5.21071 1.9599 5.58579 1.58483C5.96086 1.20975 6.46957 0.99904 7 0.99904ZM7.5 5.95804C8.2417 5.83267 8.90924 5.43324 9.37032 4.83891C9.83141 4.24457 10.0524 3.49871 9.98949 2.74912C9.92659 1.99954 9.58438 1.30094 9.03069 0.791761C8.47699 0.282587 7.75222 0 7 0C6.24778 0 5.52301 0.282587 4.96932 0.791761C4.41562 1.30094 4.07341 1.99954 4.01051 2.74912C3.9476 3.49871 4.16859 4.24457 4.62968 4.83891C5.09076 5.43324 5.7583 5.83267 6.5 5.95804V8.99904H4.5C4.10218 8.99904 3.72064 9.15707 3.43934 9.43838C3.15804 9.71968 3 10.1012 3 10.499V10.999H2C1.46957 10.999 0.960859 11.2098 0.585786 11.5848C0.210714 11.9599 0 12.4686 0 12.999V15.499C0 15.6316 0.0526785 15.7588 0.146447 15.8526C0.240215 15.9464 0.367392 15.999 0.5 15.999H13.5C13.6326 15.999 13.7598 15.9464 13.8536 15.8526C13.9473 15.7588 14 15.6316 14 15.499V12.999C14 12.4686 13.7893 11.9599 13.4142 11.5848C13.0391 11.2098 12.5304 10.999 12 10.999H11V10.499C11 10.1012 10.842 9.71968 10.5607 9.43838C10.2794 9.15707 9.89782 8.99904 9.5 8.99904H7.5V5.95804ZM4.5 9.99904H9.5C9.63261 9.99904 9.75979 10.0517 9.85355 10.1455C9.94732 10.2393 10 10.3664 10 10.499V10.999H4V10.499C4 10.3664 4.05268 10.2393 4.14645 10.1455C4.24021 10.0517 4.36739 9.99904 4.5 9.99904ZM2 11.999H12C12.2652 11.999 12.5196 12.1044 12.7071 12.2919C12.8946 12.4795 13 12.7338 13 12.999V14.999H1V12.999C1 12.7338 1.10536 12.4795 1.29289 12.2919C1.48043 12.1044 1.73478 11.999 2 11.999Z" fill="white"/>
</svg>
