<svg width="18" height="11" viewBox="0 0 18 11" fill="none" xmlns="http://www.w3.org/2000/svg">
<path d="M12.6 0H5.4C3.96783 0 2.59432 0.579463 1.58162 1.61091C0.568927 2.64236 0 4.04131 0 5.5C0 6.95869 0.568927 8.35764 1.58162 9.38909C2.59432 10.4205 3.96783 11 5.4 11H12.6C14.0322 11 15.4057 10.4205 16.4184 9.38909C17.4311 8.35764 18 6.95869 18 5.5C18 4.04131 17.4311 2.64236 16.4184 1.61091C15.4057 0.579463 14.0322 0 12.6 0ZM8.1 6.41667H6.3V8.25H4.5V6.41667H2.7V4.58333H4.5V2.75H6.3V4.58333H8.1V6.41667ZM11.25 8.25C10.892 8.25 10.5486 8.10513 10.2954 7.84727C10.0422 7.58941 9.9 7.23967 9.9 6.875C9.9 6.51033 10.0422 6.16059 10.2954 5.90273C10.5486 5.64487 10.892 5.5 11.25 5.5C11.608 5.5 11.9514 5.64487 12.2046 5.90273C12.4578 6.16059 12.6 6.51033 12.6 6.875C12.6 7.23967 12.4578 7.58941 12.2046 7.84727C11.9514 8.10513 11.608 8.25 11.25 8.25ZM13.95 5.5C13.592 5.5 13.2486 5.35513 12.9954 5.09727C12.7422 4.83941 12.6 4.48967 12.6 4.125C12.6 3.76033 12.7422 3.41059 12.9954 3.15273C13.2486 2.89487 13.592 2.75 13.95 2.75C14.308 2.75 14.6514 2.89487 14.9046 3.15273C15.1578 3.41059 15.3 3.76033 15.3 4.125C15.3 4.48967 15.1578 4.83941 14.9046 5.09727C14.6514 5.35513 14.308 5.5 13.95 5.5Z" fill="white"/>
</svg>
