<svg width="16" height="13" viewBox="0 0 16 13" fill="none" xmlns="http://www.w3.org/2000/svg">
<path d="M12.159 0.026C10.8658 0.658726 9.44949 1.00008 8.01 1.026C6.54197 0.999635 5.0979 0.649287 3.781 0C1.17 0.026 0 1.196 0 3.866V9.866C0.0078858 10.4416 0.242094 10.991 0.651947 11.3952C1.0618 11.7994 1.61434 12.0261 2.19 12.026H2.422C2.8795 12.0261 3.32554 11.883 3.69752 11.6166C4.0695 11.3503 4.34872 10.9741 4.496 10.541C4.801 9.626 5.641 8.026 6.581 8.026H9.421C10.361 8.026 11.201 9.626 11.501 10.526C11.6465 10.9623 11.9253 11.3418 12.2982 11.6109C12.6711 11.8801 13.1191 12.0253 13.579 12.026H13.811C15.021 12.026 16.001 11.046 16.001 9.836V3.836C16.001 1.196 14.831 0.026 12.161 0.026H12.159ZM4.999 5.026H3.999V6.026H2.999V5.026H1.999V4.026H2.999V3.026H3.999V4.026H4.999V5.026ZM10.059 6.136C9.91973 6.13593 9.78184 6.10844 9.6532 6.05508C9.52456 6.00173 9.40769 5.92356 9.30926 5.82503C9.21083 5.72651 9.13277 5.60956 9.07953 5.48087C9.0263 5.35218 8.99893 5.21427 8.999 5.075C8.99907 4.93573 9.02656 4.79784 9.07992 4.6692C9.13327 4.54056 9.21144 4.42369 9.30997 4.32526C9.40849 4.22683 9.52544 4.14877 9.65413 4.09553C9.78282 4.0423 9.92073 4.01493 10.06 4.015C10.3413 4.01513 10.611 4.12699 10.8097 4.32597C11.0085 4.52494 11.1201 4.79474 11.12 5.076C11.1199 5.35726 11.008 5.62695 10.809 5.82574C10.6101 6.02453 10.3403 6.13613 10.059 6.136ZM12.999 6.026C12.7338 6.026 12.4794 5.92064 12.2919 5.73311C12.1044 5.54557 11.999 5.29122 11.999 5.026C11.999 4.76078 12.1044 4.50643 12.2919 4.31889C12.4794 4.13136 12.7338 4.026 12.999 4.026C13.2642 4.026 13.5186 4.13136 13.7061 4.31889C13.8936 4.50643 13.999 4.76078 13.999 5.026C13.999 5.29122 13.8936 5.54557 13.7061 5.73311C13.5186 5.92064 13.2642 6.026 12.999 6.026Z" fill="white"/>
</svg>
